<?xml version="1.0" standalone="no"?>
<!DOCTYPE svg PUBLIC "-//W3C//DTD SVG 20010904//EN"
 "http://www.w3.org/TR/2001/REC-SVG-20010904/DTD/svg10.dtd">
<svg version="1.0" xmlns="http://www.w3.org/2000/svg"
 width="161.000000pt" height="214.000000pt" viewBox="0 0 161.000000 214.000000"
 preserveAspectRatio="xMidYMid meet">
<metadata>
Created by potrace 1.16, written by Peter Selinger 2001-2019
</metadata>
<g transform="translate(0.000000,214.000000) scale(0.100000,-0.100000)"
fill="hsl(0 0% 30%)" stroke="none">
<path d="M653 2021 c-18 -12 -33 -28 -33 -36 0 -19 11 -19 36 0 27 21 88 18
134 -5 l40 -20 40 20 c46 23 95 25 130 5 32 -18 40 -18 40 0 0 21 -59 55 -95
55 -16 0 -49 -9 -73 -20 -40 -18 -46 -18 -73 -5 -50 27 -110 29 -146 6z"/>
<path d="M777 1924 c-12 -12 -8 -22 13 -29 16 -5 20 -15 20 -56 0 -54 -4 -57
-49 -32 -31 19 -45 15 -36 -9 9 -23 60 -48 100 -48 43 0 101 25 109 47 10 25
-2 28 -33 10 -45 -26 -51 -22 -51 34 0 43 3 52 20 56 37 10 15 28 -36 31 -27
2 -53 0 -57 -4z"/>
<path d="M692 1738 c-23 -23 -14 -40 18 -33 26 6 30 4 30 -15 0 -12 5 -30 10
-40 7 -13 6 -133 -2 -376 l-12 -357 -53 -61 c-36 -41 -53 -70 -53 -88 0 -21
-13 -37 -55 -70 -43 -33 -55 -49 -55 -70 0 -19 -18 -48 -59 -94 -45 -52 -66
-88 -91 -153 -18 -47 -37 -91 -44 -98 -6 -6 -38 -22 -70 -35 -52 -21 -61 -28
-73 -63 -16 -46 -33 -61 -85 -76 -22 -5 -38 -16 -38 -24 0 -22 38 -18 98 10
67 31 103 31 167 0 63 -31 106 -31 173 0 67 31 87 31 154 0 67 -31 119 -31
186 0 67 31 78 31 152 0 75 -31 114 -31 182 0 67 31 82 31 152 -1 57 -26 96
-29 103 -7 3 7 -8 15 -24 18 -15 4 -48 15 -73 25 -25 10 -53 21 -64 24 -17 6
-18 14 -14 74 4 41 15 89 32 126 14 32 26 64 26 71 0 8 -18 16 -40 20 -35 6
-47 15 -82 62 -22 31 -45 74 -49 97 -5 23 -11 51 -14 63 -3 12 -25 36 -50 54
-29 21 -45 40 -45 53 0 12 -24 49 -54 83 l-54 62 -8 318 c-10 345 -10 391 1
441 7 30 10 33 36 27 33 -7 41 13 14 35 -32 26 -85 -15 -85 -65 0 -11 -13 -15
-49 -15 -48 0 -49 1 -55 35 -9 47 -56 71 -84 43z m176 -203 c1 -44 6 -197 11
-340 5 -143 7 -263 5 -267 -9 -13 -101 -9 -106 5 -3 9 17 672 21 685 1 2 16 2
33 0 l33 -3 3 -80z m125 -832 c4 -38 7 -103 7 -145 l0 -78 -170 0 -170 0 0 53
c0 30 3 95 6 145 l7 92 157 0 157 0 6 -67z m79 -25 c9 -7 21 -38 27 -68 7 -30
23 -72 36 -92 34 -51 32 -58 -12 -51 -83 13 -83 13 -83 107 0 46 -3 91 -6 100
-7 19 15 21 38 4z m-452 -100 l-5 -93 -67 -3 c-38 -2 -68 1 -68 6 0 5 16 27
36 51 21 24 37 53 37 67 0 23 53 78 67 69 3 -2 3 -45 0 -97z m527 -154 c59 -9
110 -18 112 -20 3 -3 -5 -24 -16 -48 -13 -26 -24 -75 -28 -123 l-7 -80 -44
-22 c-58 -28 -101 -27 -174 4 -74 31 -92 31 -155 0 -65 -32 -113 -31 -181 1
-63 30 -107 28 -175 -6 -51 -26 -86 -25 -151 5 -29 14 -65 25 -80 25 -49 0
-33 29 30 56 31 13 63 28 70 32 8 4 30 49 49 100 l36 92 303 0 c226 0 331 -4
411 -16z"/>
</g>
</svg>
