<svg version="1.0" xmlns="http://www.w3.org/2000/svg" width="341.333" height="341.333" viewBox="0 0 256 256"><path d="M105.9 27.3c-5.2 3.4-6.9 7.8-6.9 17.4V53h-5.5c-3.1 0-7 .6-8.8 1.4-4.3 1.7-9.3 7.6-10.6 12.3-1.5 5.2-1.5 145.4-.1 150.5 1.4 5 5.5 9.7 10.5 11.9 3.7 1.7 7.3 1.9 43.5 1.9s39.8-.2 43.5-1.9c5-2.2 9.1-6.9 10.5-11.9 1.4-5.1 1.4-145.3-.1-150.5-1.3-4.7-6.3-10.6-10.6-12.3-1.8-.8-5.7-1.4-8.8-1.4H157v-8.3c0-9.6-1.7-14-6.9-17.4-3.2-2.2-4.3-2.3-22.1-2.3s-18.9.1-22.1 2.3zM143 45.5V53h-30V38h30v7.5zm24.2 22.2c1.7 1.5 1.8 5.2 1.8 74.4v72.8l-2.2 1.5c-3.4 2.4-74.2 2.4-77.6 0l-2.2-1.5v-72.6c0-66.2.1-72.8 1.7-74.5 1.5-1.7 4.1-1.8 39.1-1.8 33.5 0 37.7.2 39.4 1.7z"/><path d="M134.4 89.5c-.9 1.4-9 15.2-18 30.8-12 20.9-16 28.5-15.2 29.4.7.9 4.5 1.3 12.4 1.3 10.2 0 11.4.2 11.4 1.7-.1 1-1.8 10.8-3.9 21.8-2.7 14-3.5 20.4-2.8 21.3.8 1.1 1.4 1 2.7-.5 2.6-2.7 34.2-58.1 34.4-60.1.1-1.5-1.2-1.7-12.1-2-6.8-.1-12.3-.6-12.3-1 0-.3 1.8-10.2 4-21.9 2.3-11.8 3.8-21.8 3.5-22.3-1-1.6-2.4-1.1-4.1 1.5z"/></svg>