<svg version="1.0" xmlns="http://www.w3.org/2000/svg" width="682.667" height="682.667" viewBox="0 0 512 512">
    <path d="M185 59.7c-26.7 7.9-47 14.7-56.3 18.9-13.2 5.8-25.8 14.3-30.8 20.7-9.2 11.6-19.9 39.3-28.8 74.4-8.4 33.5-13.8 64.6-12.7 74.5 1.5 15 22.6 66.9 46.7 115 7.3 14.6 8.7 16.1 15.3 16.2l3.9.1 3.9 9c4.8 10.9 7.4 13.9 12.3 13.9h3.5v9.2c0 8.5.2 9.5 2.6 12.3 1.4 1.7 3.4 3.1 4.4 3.1 1.6 0 1.9 1.2 2.2 11.6l.3 11.6 3.4 3c3.8 3.4 2.4 3.4 22.1 0 52-9.1 110.9-8.7 163.8 1 17.8 3.2 20.2 1.2 20.2-16.7 0-9.6.2-10.5 1.9-10.5 1 0 3-1.2 4.5-2.6 2.5-2.5 2.6-3.2 2.6-12.6 0-9.4.1-9.9 1.9-9.3 1.1.3 3.5 0 5.3-.8 3-1.3 4-2.8 8.1-11.8l4.6-10.4 3.9-.1c2.2-.1 4.9-.7 6.1-1.3 5.1-2.8 39.5-77.6 50.2-109.1 6-17.8 6.6-23 4.4-38.5-7.1-51.5-26.1-113.2-40.4-131.2-7.5-9.5-24.8-19.3-49.4-27.9-11.5-4-50-15.4-52.1-15.4-.8 0-6.6 2.7-13 6-6.5 3.3-16.1 7.4-21.4 9.2-8.8 2.9-10.8 3.2-22.2 3.2-11.4 0-13.4-.3-22-3.2-5.2-1.7-14.9-5.9-21.4-9.2-6.5-3.3-12.8-5.9-14-5.9-1.2.1-7.3 1.7-13.6 3.6zm6 21.5c0 3.9 6.1 20.4 10.2 27.3 6.1 10.4 18.6 22.4 28.2 27 22.9 11 49 7.1 67.6-10.2 11.2-10.4 19.5-24.7 23-39.8.7-2.8 1.3-5.5 1.5-6.2.3-.8 5.2.3 15.7 3.4 27.1 8 45.6 15.5 55.4 22.5l4.1 2.9-12.9 39.7C348.5 256.3 323 338.1 323 342.7c0 2.6.8 4.2 2.9 6.2l2.9 2.7-4.5 10.4c-6.5 15.4-5.8 16.7 13.7 25.5l13 5.8v6.4c0 7.4.9 7-13.8 4.8-25.9-3.8-44.4-4.9-81.2-4.9-36.8 0-55.3 1.1-81.2 4.9-14.7 2.2-13.8 2.6-13.8-4.8v-6.3l13-5.9c19.6-8.8 20.4-10.2 13.7-25.6l-4.5-10.3 2.9-2.7c2.1-2 2.9-3.6 2.9-6.1 0-4.7-25.9-87.6-61.4-196.9L115.3 108l5.1-3.4c6.9-4.5 14.2-8.1 24.8-12.2 11-4.3 44-14.3 45.1-13.7.4.2.7 1.3.7 2.5zm27.6 4.7c13.3 5.6 22.5 7.5 37.4 7.5 14.8 0 23-1.6 37.1-7.4 4-1.6 7.5-2.8 7.6-2.6.7.7-4.7 12.9-7.7 17.6-19.9 31-61 27.7-77.4-6.2-3.5-7.4-5.1-11.8-4.3-11.8.3 0 3.6 1.3 7.3 2.9zm-101.7 88.7c14.3 44.1 34.2 106.6 45.1 141.8 4.8 15.6 5.9 20.1 4.8 20.7-5.3 3.3-45 20.1-45.7 19.3-1.1-1.1-15.3-31.3-23.3-49.4-9.1-20.3-17.5-42-20.5-52.2-2.5-8.8-2.6-9.5-1.4-18.7 1.7-13.1 7.4-41.4 12.1-59.6 5.2-20.5 13.6-46.3 14.6-45.2.2.2 6.7 19.7 14.3 43.3zM416 148.8c8 24.5 16.4 61.1 20.1 87.1 1.4 10.1.7 14-5.8 32.1-6.8 18.7-36.4 85.2-39.4 88.4-.7.8-40.5-16.1-45.8-19.4-.9-.5 1-8.1 7.4-28.6 11.9-38.2 27.4-87 41.1-129.4 6.3-19.5 12.4-38.4 13.6-41.9 1.4-4.5 2.3-5.9 2.9-5 .5.8 3.2 8.3 5.9 16.7zM167.6 363.5c.9 2.5 1.4 4.8 1.1 5.1-.7.8-23.8 11.4-24.7 11.4-.8 0-4-6.6-4-8.4 0-1 22.3-12.1 25.2-12.5.3-.1 1.4 1.9 2.4 4.4zm192.7 1.5c6.5 2.9 11.7 5.8 11.7 6.6 0 1.8-3.2 8.4-4 8.4-.9 0-24-10.6-24.7-11.4-1-1 2.8-9.8 4.1-9.3.6.3 6.4 2.8 12.9 5.7zm-50.8 55.5c8.8.8 19.6 2.1 24 2.8l8 1.2.3 5.2c.2 2.9.1 5.3-.1 5.3s-2.7-.4-5.4-1c-29.3-5.5-84.9-7.9-118.8-5.1-12.7 1.1-40.7 4.7-45.3 5.8-2.2.5-2.3.3-2-4.8l.3-5.4 4.5-.7c8-1.4 31.2-3.8 44.5-4.8 18.8-1.3 71.1-.4 90 1.5z"/>  
</svg>