<svg width="511" height="511" xmlns="http://www.w3.org/2000/svg">
<path fill="none" d="M-1-1h582v402H-1z"/><g><path d="m311.715 157.677-15.196-15.196c-6.138-6.139-9.519-14.3-9.519-22.981V41.141c4.899-4.31 8-10.619 8-17.641C295 10.542 284.458 0 271.5 0h-32C226.542 0 216 10.542 216 23.5c0 7.023 3.101 13.332 8 17.641V119.5c0 8.681-3.381 16.842-9.519 22.981l-15.196 15.196C184.27 172.692 176 192.656 176 213.892V487.5c0 12.958 10.542 23.5 23.5 23.5h112c12.958 0 23.5-10.542 23.5-23.5V213.892c0-21.236-8.27-41.2-23.285-56.215zM239.5 15h32c4.687 0 8.5 3.813 8.5 8.5s-3.813 8.5-8.5 8.5h-32c-4.687 0-8.5-3.813-8.5-8.5s3.813-8.5 8.5-8.5zM191 327h16.5a7.5 7.5 0 0 0 0-15H191v-17h32.5a7.5 7.5 0 0 0 0-15H191v-25h48.5c4.687 0 8.5 3.813 8.5 8.5v128c0 4.687-3.813 8.5-8.5 8.5H191v-73zm129 160.5c0 4.687-3.813 8.5-8.5 8.5h-112c-4.687 0-8.5-3.813-8.5-8.5V415h48.5c12.958 0 23.5-10.542 23.5-23.5v-128c0-12.958-10.542-23.5-23.5-23.5H191v-26.108c0-17.229 6.709-33.426 18.892-45.608l15.196-15.196c8.972-8.972 13.913-20.9 13.913-33.587V46.987c.167.004.332.013.5.013h32c.168 0 .333-.009.5-.013V119.5c0 12.688 4.941 24.616 13.913 33.587l15.196 15.196c12.181 12.183 18.89 28.38 18.89 45.609V487.5z"/><path d="M295.5 206.392a7.5 7.5 0 0 0-7.5 7.5V287.5a7.5 7.5 0 0 0 15 0v-73.608a7.5 7.5 0 0 0-7.5-7.5zM278.481 190.911a7.474 7.474 0 0 0 5.303 2.197 7.474 7.474 0 0 0 5.303-2.197 7.5 7.5 0 0 0 0-10.606l-15.196-15.196a7.5 7.5 0 0 0-10.606 0 7.5 7.5 0 0 0 0 10.606l15.196 15.196z"/></g>
</svg>