<svg version="1.0" xmlns="http://www.w3.org/2000/svg" width="682.667" height="682.667" viewBox="0 0 512 512"><path d="M220.2 35.6c-56.7 6.1-101.3 26.9-111.8 51.9-4 9.6-3.4 21.1 1.7 30.4l2.9 5.5v59.2l-2.9 5.5c-5.7 10.4-5.7 22.4-.1 33.3l3 5.9v58.3l-2.9 5.5c-5.7 10.4-5.7 22.4-.1 33.3l3 5.9v29.4c0 27.3-.1 29.7-1.9 32.1-3.1 4.4-5.3 12.3-5.3 19.2 0 37.8 65.4 67 150.2 67 76.3 0 138.3-23.9 149-57.4 2.6-8.2.7-22-4.1-28.8-1.8-2.4-1.9-4.8-1.9-32.1v-29.4l3-5.9c5.6-10.9 5.6-22.9-.1-33.3l-2.9-5.5v-58.3l3-5.9c5.6-10.9 5.6-22.9-.1-33.3l-2.9-5.5v-58.9l3-6.1c9.2-18.7 3.3-36.5-17.4-51.8-20.3-15.1-54.7-26.2-93.8-30.3-18-1.8-53.3-1.8-70.6.1zm78.3 16.8c46.4 7.1 78.6 21.3 89.2 39.3 11.5 19.6-15.6 42.2-64.7 53.7-47.6 11.3-108.3 9.2-152.5-5-12.2-4-29.2-12.7-36.5-18.7-11.8-9.7-15.2-20.5-9.7-30C135.7 72.3 175.9 56 225 51c13.1-1.3 61.7-.4 73.5 1.4zm-152.1 95.2c17.8 8.7 42.6 15.3 71.1 19 18.3 2.4 58.1 2.4 77 0 34.4-4.3 64.9-13.7 84.4-26l4.1-2.6v50.1l3 4.4c5.1 7.4 5.6 14.5 1.7 22.1-.9 1.7-4.5 5.8-8 9.1-11.1 10.4-33.3 20.2-57.8 25.7-24.3 5.4-32.1 6.1-65.9 6.1-33.8 0-41.6-.7-65.9-6.1-37-8.3-64.5-24.8-68.2-41.1-1-4.6.7-11.1 4.1-16l3-4.1V138l4.1 2.6c2.3 1.4 8.3 4.6 13.3 7zM140 248.2c17.2 9.5 40.4 16.5 68.6 20.8 19.6 3.1 60.7 3.8 82.2 1.6 33.9-3.6 64.2-12.3 84.3-24l7.4-4.4.3 24.5.2 24.5 3 4.2c5.1 7.1 5.6 14.6 1.7 22.2-2.9 5.6-14 14.7-24.5 20.2-16.6 8.7-37.8 14.8-64.7 18.9-17.3 2.6-68 2.6-84.5 0-27.8-4.3-45.7-9.4-62.6-17.7-12.8-6.3-23.8-15-27.1-21.4-3.9-7.6-3.4-15.1 1.7-22.3l3-4.1v-49.4l2.3 1.4c1.2.8 5.1 3.1 8.7 5zm-4.3 100.5c11.6 7.4 33.2 15.4 53.8 19.8 24.1 5.2 32.8 6 67 5.9 28.1 0 33.8-.3 46.5-2.2 30.7-4.8 56-13 74.8-24.2l5.2-3.2v49.4l3 4.1c7.5 10.6 5.4 20.7-6.4 31.4-13.7 12.4-37.3 21.9-69.1 27.8-20.2 3.7-37.1 4.8-63.5 4.2-24.3-.6-35.8-1.9-55.6-6.3-38.4-8.5-65.7-24.7-69.4-41.1-1.1-4.6.9-12.2 4.3-16.7l2.7-3.5v-24.5c0-13.5.2-24.6.5-24.6.2 0 3 1.7 6.2 3.7z"/><path d="M172 88.9c-7.9 2.4-13 7.3-13 12.6 0 9.2 16.7 15.7 31 12.1 7.5-2 11.8-4.8 13.6-9.2 3.7-8.8-7-16.5-22.5-16.3-3.6 0-7.7.4-9.1.8z"/></svg>