<svg version="1.0" xmlns="http://www.w3.org/2000/svg" width="682.667" height="682.667" viewBox="0 0 512 512">
<path d="M284.5 30.1c-15.1 2-29.5 8-37.2 15.7-5.8 5.6-8.3 10.5-8.3 16.2 0 2.3 3.2 23 7 45.9 3.8 23 7 42.3 7 42.9 0 .9-23.5 1.2-97 1.2H59v109.9l-6.2.3-6.2.3L23.8 312C11.3 339.2 1 362.1 1 362.7c0 1 5 1.3 21.5 1.3H44l.2 59.2.3 59.3h423l.3-59.3.2-59.2h21.5c16.5 0 21.5-.3 21.5-1.3 0-.6-10.3-23.5-22.8-50.7l-22.8-49.5-8.7-.3c-8.2-.3-8.7-.4-8.7-2.5 0-1.2 5.2-42 11.6-90.7 6.4-48.7 11.6-90.8 11.6-93.5.2-15.4-18.1-28.2-45-31.4-14.2-1.7-30.6.9-38.1 6.1-1.9 1.3-2.7 1.3-7.4-.3-11.8-4-31.6-4.4-43.7-.9-4.7 1.3-5 1.3-5-.8 0-3-5.6-9.9-10.2-12.5-9-5.3-23.7-7.4-37.3-5.6zm21.9 15.3c6.2 1.5 10.9 4.3 11.4 6.9.6 2.8-6.4 9.2-13.7 12.6-9.8 4.5-19.7 6.4-30.6 5.8-17.4-.8-24.5-7.1-16.4-14.3 11-9.7 33.5-14.7 49.3-11zm131.2 16c8.4 2.7 15.2 6.8 17.9 11 2.3 3.4.6 6.2-5.3 8.9-4.1 1.9-6.5 2.2-18.2 2.2-11.2 0-14.7-.4-20.6-2.2-8.2-2.6-16.2-7.6-18.3-11.5-1.5-2.5-1.4-2.9.8-5.2 2.2-2.3 8-4.8 14.1-6 6-1.2 21.7.3 29.6 2.8zm-64.2 1.7 3.8 1.1-.7 7.6c-.4 4.2-1.1 8.5-1.6 9.4-1.7 3.2-19 6.3-28.9 5.3-8-.9-18.1-4.1-21.5-6.9-2.6-2.1-2.9-2.7-2-5.2 1.7-4.8 12.2-10.3 23.8-12.4 6.2-1.1 21.6-.5 27.1 1.1zm-60.8 107.7c2.8 49.3 4.8 90.1 4.4 90.5-.3.4-5.6.6-11.6.5l-10.9-.3-.3-54.8-.2-54.7h-12.4c-6.9 0-12.7-.4-13-.8-.6-1.1-11.8-67.4-11.4-67.7.2-.2 3.2.3 6.8 1.1 10.7 2.2 23.9 1.4 36.5-2.5 3.3-1 6.2-1.6 6.4-1.4.3.2 2.8 40.7 5.7 90.1zm83.5-79.9c10.1 5.5 19.7 7.6 35.4 7.6 9.2 0 15.3-.5 17.8-1.3 2.1-.8 4.1-1.2 4.3-.9.5.5-20.3 162-21.1 164.4-.3 1-7.8 1.3-33 1.3-27.8 0-32.5-.2-32.5-1.5 0-.8 5-39.3 11-85.7 6.1-46.3 11-84.8 11-85.5 0-1.9 1-1.6 7.1 1.6zm-48.9 9.9c6.7.2 14.4 0 18.3-.7 3.7-.7 6.9-1 7.1-.8.2.2-4.4 36.4-10.1 80.5-5.8 44.2-10.5 80.7-10.5 81.3 0 .6-3.7.9-9.7.7l-9.8-.3-4.7-80.5c-2.6-44.3-4.7-81.5-4.7-82.6l-.1-2.2 6.3 2c4.1 1.4 10 2.2 17.9 2.6zM189.5 214v47.5l-57.7.3-57.8.2v-96l57.8.2 57.7.3V214zm30 0v47.5h-15l-.3-46.5c-.1-25.6 0-47.1.3-47.8.3-.9 2.5-1.2 7.7-1l7.3.3V214zm30 0v47.5h-15l-.3-46.5c-.1-25.6 0-47.1.3-47.8.3-.9 2.5-1.2 7.7-1l7.3.3V214zm30 0v47.5h-15l-.3-46.5c-.1-25.6 0-47.1.3-47.8.3-.9 2.5-1.2 7.7-1l7.3.3V214zM243 276.8c0 .4-7.4 16.7-16.3 36.2l-16.4 35.5-93.1.3c-58.9.1-93.2-.1-93.2-.7 0-1 27.1-60.4 31.1-68.2L57 276h93c51.2 0 93 .3 93 .8zm228.7 34.7c8.9 19.2 16.2 35.6 16.2 36.3.1 1-18.8 1.2-93.1 1l-93.1-.3-16.4-35.5c-8.9-19.5-16.3-35.8-16.3-36.2 0-.5 42-.7 93.2-.6l93.3.3 16.2 35zM248.5 466.8c-.3.9-20.3 1.2-95 1.2H59V364h79.9c62.7 0 80.1-.3 80.8-1.3.6-.6 5.7-11.3 11.3-23.7 5.7-12.4 11.9-25.9 13.9-30l3.6-7.5.3 82c.1 45.1 0 82.6-.3 83.3zM278 332.5c7.3 15.9 13.7 29.6 14.3 30.2.7 1 18.1 1.3 80.8 1.3H453v104l-94.7-.2-94.8-.3-.3-83c-.1-49.3.2-82.5.7-82 .5.6 6.9 14 14.1 30z"/><path d="M92 199v7h80v-14H92v7zM92 229v7h80v-14H92v7z"/>
</svg>