<?xml version="1.0" standalone="no"?>
<!DOCTYPE svg PUBLIC "-//W3C//DTD SVG 20010904//EN"
 "http://www.w3.org/TR/2001/REC-SVG-20010904/DTD/svg10.dtd">
<svg version="1.0" xmlns="http://www.w3.org/2000/svg"
 width="161.000000pt" height="214.000000pt" viewBox="0 0 161.000000 214.000000"
 preserveAspectRatio="xMidYMid meet">

<g transform="translate(0.000000,214.000000) scale(0.100000,-0.100000)"
fill="hsl(0 0% 30%)" stroke="none">
<path d="M662 2025 c-30 -13 -51 -40 -39 -51 2 -3 22 4 44 16 37 19 43 19 87
6 26 -8 53 -19 61 -26 10 -8 22 -6 51 10 47 24 106 26 140 4 13 -9 27 -14 31
-11 12 13 -8 39 -43 53 -40 17 -88 13 -136 -12 -25 -13 -32 -13 -57 0 -45 24
-102 28 -139 11z"/>
<path d="M777 1924 c-12 -12 -8 -22 13 -29 16 -5 20 -15 20 -56 0 -54 -7 -58
-51 -32 -39 23 -49 8 -16 -25 24 -23 36 -27 87 -27 51 0 63 4 87 27 33 33 23
48 -16 25 -45 -26 -51 -22 -51 34 0 43 3 52 20 56 37 10 15 28 -36 31 -27 2
-53 0 -57 -4z"/>
<path d="M692 1738 c-23 -23 -14 -40 16 -33 28 6 29 4 41 -47 10 -41 10 -111
2 -318 -6 -146 -11 -300 -11 -342 l0 -77 -55 -65 c-35 -41 -55 -74 -55 -90 0
-18 -14 -36 -54 -68 -43 -34 -55 -49 -55 -71 -1 -20 -19 -49 -59 -95 -44 -50
-67 -88 -92 -152 -18 -47 -37 -90 -44 -97 -6 -6 -37 -22 -70 -35 -53 -21 -60
-27 -75 -68 -15 -40 -22 -47 -69 -65 -51 -20 -62 -37 -29 -43 9 -2 42 8 73 22
71 33 112 33 172 1 59 -31 103 -31 170 0 67 31 87 31 154 0 67 -31 119 -31
183 0 63 31 90 31 157 0 29 -14 69 -25 88 -25 19 0 59 11 88 25 65 30 96 31
145 5 42 -23 108 -31 114 -15 2 6 -18 18 -44 27 -27 9 -66 23 -88 31 l-40 15
-3 62 c-3 52 2 72 27 127 17 36 31 71 31 78 0 7 -18 15 -40 19 -35 5 -46 15
-85 66 -31 43 -46 75 -51 108 -9 62 -15 73 -62 106 -24 16 -42 38 -45 54 -4
15 -28 53 -55 84 l-50 57 -8 278 c-10 325 -10 436 1 481 7 30 10 32 36 27 21
-5 29 -3 29 7 0 19 -21 38 -41 38 -21 0 -59 -46 -59 -71 0 -16 -8 -19 -50 -19
-48 0 -49 1 -56 35 -9 48 -54 71 -82 43z m179 -303 c4 -99 8 -254 10 -345 l4
-165 -55 0 -55 0 0 60 c1 135 16 592 21 613 4 19 10 23 37 20 l32 -3 6 -180z
m58 -579 c13 -14 21 -28 18 -33 -7 -10 -223 -11 -233 0 -4 4 3 18 16 32 21 22
31 25 100 25 68 0 79 -3 99 -24z m65 -159 c3 -40 7 -103 8 -142 l2 -70 -169
-3 c-100 -1 -171 1 -174 7 -6 9 6 256 13 276 2 6 61 9 159 7 l155 -3 6 -72z
m105 -85 c7 -31 24 -74 37 -94 13 -21 24 -42 24 -47 0 -10 -76 -3 -102 10 -13
7 -17 28 -20 106 -2 54 -3 101 -1 105 2 4 14 1 27 -7 16 -11 27 -33 35 -73z
m-479 -37 l-5 -90 -67 -3 c-80 -3 -86 7 -33 58 23 22 35 43 35 61 0 29 57 88
69 72 4 -4 4 -48 1 -98z m533 -151 c59 -9 107 -20 107 -24 0 -4 -9 -27 -19
-51 -11 -24 -23 -78 -27 -120 l-7 -76 -44 -22 c-56 -27 -113 -27 -166 1 -54
27 -119 27 -172 -1 -50 -27 -117 -27 -159 -2 -55 34 -98 36 -162 7 -68 -31
-111 -33 -163 -6 -22 11 -58 22 -81 26 -29 5 -40 11 -38 22 3 17 13 23 85 53
l52 21 37 94 36 94 307 0 c234 0 331 -4 414 -16z"/>
</g>
</svg>
