<svg xmlns="http://www.w3.org/2000/svg">
    <!-- Custom filter checkboxes icons -->
    <symbol id="batteries-filter-icon" viewBox="0 0 256 256">
        <path d="M105.9 27.3c-5.2 3.4-6.9 7.8-6.9 17.4V53h-5.5c-3.1 0-7 .6-8.8 1.4-4.3 1.7-9.3 7.6-10.6 12.3-1.5 5.2-1.5 145.4-.1 150.5 1.4 5 5.5 9.7 10.5 11.9 3.7 1.7 7.3 1.9 43.5 1.9s39.8-.2 43.5-1.9c5-2.2 9.1-6.9 10.5-11.9 1.4-5.1 1.4-145.3-.1-150.5-1.3-4.7-6.3-10.6-10.6-12.3-1.8-.8-5.7-1.4-8.8-1.4H157v-8.3c0-9.6-1.7-14-6.9-17.4-3.2-2.2-4.3-2.3-22.1-2.3s-18.9.1-22.1 2.3zM143 45.5V53h-30V38h30v7.5zm24.2 22.2c1.7 1.5 1.8 5.2 1.8 74.4v72.8l-2.2 1.5c-3.4 2.4-74.2 2.4-77.6 0l-2.2-1.5v-72.6c0-66.2.1-72.8 1.7-74.5 1.5-1.7 4.1-1.8 39.1-1.8 33.5 0 37.7.2 39.4 1.7z"/><path d="M134.4 89.5c-.9 1.4-9 15.2-18 30.8-12 20.9-16 28.5-15.2 29.4.7.9 4.5 1.3 12.4 1.3 10.2 0 11.4.2 11.4 1.7-.1 1-1.8 10.8-3.9 21.8-2.7 14-3.5 20.4-2.8 21.3.8 1.1 1.4 1 2.7-.5 2.6-2.7 34.2-58.1 34.4-60.1.1-1.5-1.2-1.7-12.1-2-6.8-.1-12.3-.6-12.3-1 0-.3 1.8-10.2 4-21.9 2.3-11.8 3.8-21.8 3.5-22.3-1-1.6-2.4-1.1-4.1 1.5z"/>
    </symbol>

    <symbol id="lightbulbs-filter-icon" viewBox="0 0 512 512">
        <path d="M243.8 36.4c-57.9 20.1-82.8 29.2-85.6 31.2-10.8 7.9-16 20.4-14.1 33.9.9 6.9 3.8 13 8.9 18.8l3.9 4.4-3.5 3.4c-4.8 4.6-8.3 11.6-9.2 18.6-1.5 11.6 1.3 21 8.8 29.6l3.9 4.4-3.5 3.4c-12.7 12.2-12.8 34.9-.3 48.2l3.9 4-3.6 3.6c-12.5 12.5-12.9 33.8-.9 47.9 3.9 4.5 13.2 9.6 19.5 10.7l4 .7V320h-6c-4.8 0-6.4.4-8.1 2.1-2 2-2.1 2.8-1.7 24.7.4 21.6.6 23.1 3.2 31.2 5 15.1 11.7 26.3 22.2 36.8l6.3 6.3.3 17.8.3 17.9 3 4.4c1.7 2.4 5.2 5.6 7.7 7.3l4.7 3v7.3c.1 8.4 1.8 13.2 6.4 18.1 6.5 6.9 7.7 7.1 41.7 7.1s35.2-.2 41.7-7.1c4.6-4.9 6.3-9.7 6.4-18.1v-7.3l4.7-3c2.5-1.7 6-4.9 7.7-7.3l3-4.4.3-17.9.3-17.8 6.3-6.3c10.5-10.5 17.2-21.7 22.2-36.8 2.6-8.1 2.8-9.6 3.2-31.2.4-21.9.3-22.7-1.7-24.7-1.7-1.7-3.3-2.1-8.1-2.1h-6l.2-36.6.3-36.7 8-3c10.2-3.9 18.1-11.2 21.3-20 4.7-12.4 2.2-27.1-6.2-36.4l-4.4-4.8 4.4-4.8c11.4-12.6 11.4-33.7 0-46.4l-4.4-4.8 4.4-4.8c5.7-6.4 8.4-13.7 8.4-23.2s-2.7-16.8-8.4-23.2l-4.4-4.8 4.4-4.8c5.7-6.4 8.4-13.7 8.4-23.2 0-10.5-2.8-17.4-9.9-24.6-7.3-7.2-14-9.9-24.9-9.9-7.5.1-10.3 1-89.4 28.4zm97.1-10c4.2 2.2 8.9 8.1 9.7 12.1 1.4 7.6-1.9 15.5-7.9 19-4.6 2.8-160.8 56.5-164.1 56.5-4.7-.1-11-3.4-14.2-7.5-5.6-7.3-3.8-19.2 3.6-24.7 1.4-1 38.1-14.1 81.5-29.2 82.4-28.6 85.1-29.4 91.4-26.2zm0 56c4.2 2.2 8.9 8.1 9.7 12.1 1.4 7.6-1.9 15.5-7.9 19-4.6 2.8-160.8 56.5-164.1 56.5-4.7-.1-11-3.4-14.2-7.5-5.6-7.3-3.8-19.2 3.6-24.7 1.4-1 38.1-14.1 81.5-29.2 82.4-28.6 85.1-29.4 91.4-26.2zm0 56c4.2 2.2 8.9 8.1 9.7 12.1 1.4 7.6-1.9 15.5-7.9 19-4.7 2.8-160.8 56.5-164.2 56.5-4.6-.1-10.9-3.4-14.1-7.5-5.6-7.3-3.8-19.2 3.6-24.7 1.4-1 38.1-14.1 81.5-29.2 82.4-28.6 85.1-29.4 91.4-26.2zm0 56c4.2 2.2 8.9 8.1 9.7 12.1 1.4 7.6-1.9 15.5-7.9 19-4.7 2.8-160.8 56.5-164.2 56.5-4.6-.1-10.9-3.4-14.1-7.5-5.6-7.3-3.8-19.2 3.6-24.7 1.4-1 38.1-14.2 81.5-29.2 82.3-28.6 85.1-29.4 91.4-26.2zM320 286v34h-32v-56.8l15.8-5.5c8.6-3 15.8-5.5 16-5.6.1 0 .2 15.2.2 33.9zm-48 8.5V320h-32l.2-20.1.3-20.1 15-5.3c8.3-2.9 15.3-5.4 15.8-5.4.4-.1.7 11.4.7 25.4zm-48 8.5v17h-32v-23.5l14.8-5.2c8.1-2.8 15.3-5.2 16-5.2.9-.1 1.2 3.9 1.2 16.9zm111.6 46c-1.2 22.9-6.9 37.7-19.8 51.5l-7 7.5H203.2l-7-7.5c-12.9-13.8-18.6-28.6-19.8-51.5l-.7-13h160.6l-.7 13zM304 435.4c0 13.7-1.1 17.3-5.6 19.2-4.4 1.8-79.2 2.1-84.4.3-4.8-1.7-6-5.6-6-19.4V424h96v11.4zm-16 40.1c0 5.7-2.3 10.1-6 11.4-4.5 1.5-47.5 1.5-52 0-3.7-1.3-6-5.7-6-11.4V472h64v3.5z"/>
    </symbol>

    <symbol id="paper-filter-icon" viewBox="0 0 512 512">
        <path d="M284.5 30.1c-15.1 2-29.5 8-37.2 15.7-5.8 5.6-8.3 10.5-8.3 16.2 0 2.3 3.2 23 7 45.9 3.8 23 7 42.3 7 42.9 0 .9-23.5 1.2-97 1.2H59v109.9l-6.2.3-6.2.3L23.8 312C11.3 339.2 1 362.1 1 362.7c0 1 5 1.3 21.5 1.3H44l.2 59.2.3 59.3h423l.3-59.3.2-59.2h21.5c16.5 0 21.5-.3 21.5-1.3 0-.6-10.3-23.5-22.8-50.7l-22.8-49.5-8.7-.3c-8.2-.3-8.7-.4-8.7-2.5 0-1.2 5.2-42 11.6-90.7 6.4-48.7 11.6-90.8 11.6-93.5.2-15.4-18.1-28.2-45-31.4-14.2-1.7-30.6.9-38.1 6.1-1.9 1.3-2.7 1.3-7.4-.3-11.8-4-31.6-4.4-43.7-.9-4.7 1.3-5 1.3-5-.8 0-3-5.6-9.9-10.2-12.5-9-5.3-23.7-7.4-37.3-5.6zm21.9 15.3c6.2 1.5 10.9 4.3 11.4 6.9.6 2.8-6.4 9.2-13.7 12.6-9.8 4.5-19.7 6.4-30.6 5.8-17.4-.8-24.5-7.1-16.4-14.3 11-9.7 33.5-14.7 49.3-11zm131.2 16c8.4 2.7 15.2 6.8 17.9 11 2.3 3.4.6 6.2-5.3 8.9-4.1 1.9-6.5 2.2-18.2 2.2-11.2 0-14.7-.4-20.6-2.2-8.2-2.6-16.2-7.6-18.3-11.5-1.5-2.5-1.4-2.9.8-5.2 2.2-2.3 8-4.8 14.1-6 6-1.2 21.7.3 29.6 2.8zm-64.2 1.7 3.8 1.1-.7 7.6c-.4 4.2-1.1 8.5-1.6 9.4-1.7 3.2-19 6.3-28.9 5.3-8-.9-18.1-4.1-21.5-6.9-2.6-2.1-2.9-2.7-2-5.2 1.7-4.8 12.2-10.3 23.8-12.4 6.2-1.1 21.6-.5 27.1 1.1zm-60.8 107.7c2.8 49.3 4.8 90.1 4.4 90.5-.3.4-5.6.6-11.6.5l-10.9-.3-.3-54.8-.2-54.7h-12.4c-6.9 0-12.7-.4-13-.8-.6-1.1-11.8-67.4-11.4-67.7.2-.2 3.2.3 6.8 1.1 10.7 2.2 23.9 1.4 36.5-2.5 3.3-1 6.2-1.6 6.4-1.4.3.2 2.8 40.7 5.7 90.1zm83.5-79.9c10.1 5.5 19.7 7.6 35.4 7.6 9.2 0 15.3-.5 17.8-1.3 2.1-.8 4.1-1.2 4.3-.9.5.5-20.3 162-21.1 164.4-.3 1-7.8 1.3-33 1.3-27.8 0-32.5-.2-32.5-1.5 0-.8 5-39.3 11-85.7 6.1-46.3 11-84.8 11-85.5 0-1.9 1-1.6 7.1 1.6zm-48.9 9.9c6.7.2 14.4 0 18.3-.7 3.7-.7 6.9-1 7.1-.8.2.2-4.4 36.4-10.1 80.5-5.8 44.2-10.5 80.7-10.5 81.3 0 .6-3.7.9-9.7.7l-9.8-.3-4.7-80.5c-2.6-44.3-4.7-81.5-4.7-82.6l-.1-2.2 6.3 2c4.1 1.4 10 2.2 17.9 2.6zM189.5 214v47.5l-57.7.3-57.8.2v-96l57.8.2 57.7.3V214zm30 0v47.5h-15l-.3-46.5c-.1-25.6 0-47.1.3-47.8.3-.9 2.5-1.2 7.7-1l7.3.3V214zm30 0v47.5h-15l-.3-46.5c-.1-25.6 0-47.1.3-47.8.3-.9 2.5-1.2 7.7-1l7.3.3V214zm30 0v47.5h-15l-.3-46.5c-.1-25.6 0-47.1.3-47.8.3-.9 2.5-1.2 7.7-1l7.3.3V214zM243 276.8c0 .4-7.4 16.7-16.3 36.2l-16.4 35.5-93.1.3c-58.9.1-93.2-.1-93.2-.7 0-1 27.1-60.4 31.1-68.2L57 276h93c51.2 0 93 .3 93 .8zm228.7 34.7c8.9 19.2 16.2 35.6 16.2 36.3.1 1-18.8 1.2-93.1 1l-93.1-.3-16.4-35.5c-8.9-19.5-16.3-35.8-16.3-36.2 0-.5 42-.7 93.2-.6l93.3.3 16.2 35zM248.5 466.8c-.3.9-20.3 1.2-95 1.2H59V364h79.9c62.7 0 80.1-.3 80.8-1.3.6-.6 5.7-11.3 11.3-23.7 5.7-12.4 11.9-25.9 13.9-30l3.6-7.5.3 82c.1 45.1 0 82.6-.3 83.3zM278 332.5c7.3 15.9 13.7 29.6 14.3 30.2.7 1 18.1 1.3 80.8 1.3H453v104l-94.7-.2-94.8-.3-.3-83c-.1-49.3.2-82.5.7-82 .5.6 6.9 14 14.1 30z"/><path d="M92 199v7h80v-14H92v7zM92 229v7h80v-14H92v7z"/>
    </symbol>

    <symbol id="plastic-filter-icon" viewBox="0 0 512 512">
        <path d="M230.2 2.1c-2.9 1.5-5.1 3.6-7 6.8-2.7 4.5-2.7 4.9-2.7 21.9 0 15.9.2 17.5 1.9 18.7 1.7 1.3 1.8 2.3 1.2 9.4-1.2 14.8-3.7 21.7-14.6 40.6-12.6 22.1-21.1 38.9-24.3 48.5-5 15.3-5.2 18.1-5.2 83v60.5l5.3 16c9.9 29.8 12.8 50.2 10.3 71.2-.7 5.4-3.5 22.2-6.3 37.3-4.3 24.1-5 29.1-4.9 40.5.1 38.3 18.4 57.4 46.2 48.4l6.6-2.2 4.5 3.6c9.4 7.1 19.7 7 30-.2l5.3-3.6 5.5 2.2c6.9 2.8 17.5 3 23.8.4 2.4-.9 6.3-3.6 8.6-5.9 9.5-9.3 13.7-22.4 13.7-42.7.1-11.4-.6-16.4-4.9-40.5-2.8-15.1-5.6-31.9-6.3-37.3-2.5-21 .4-41.4 10.3-71.2l5.3-16V231c0-64.9-.2-67.7-5.2-83-3.2-9.6-11.7-26.4-24.3-48.5-10.9-18.9-13.2-25.3-14.5-40.4-.7-7.3-.6-8.3 1.1-9.6 1.7-1.2 1.9-2.9 1.9-18.7 0-17.1 0-17.4-2.7-22-1.9-3.2-4.1-5.2-7.1-6.7-4-1.9-6-2.1-25.8-2.1s-21.7.2-25.7 2.1zm47.2 13.1c1.2 1.7 1.6 4.8 1.6 12.5V38h-46V27.7c0-15.5-1.2-14.7 23-14.7 19.4 0 19.9.1 21.4 2.2zM274.8 55c.6 8.2 3.3 23.4 5.1 28.4 1 3 6.9 14.2 13 25 6.1 10.7 11.1 19.7 11.1 20 0 .3-21.6.6-48 .6s-48-.3-48-.6 5-9.3 11.1-20c6.1-10.8 12-22 13-24.9 2-5.8 4.9-21.9 4.9-27.6 0-2 .3-3.9.7-4.3.4-.3 8.8-.5 18.7-.4l18.1.3.3 3.5zm39.8 97c1.8 5.2 3.5 11.9 3.9 14.7l.7 5.3H192.8l.7-5.3c.6-4.6 3.3-14 6.4-22l1.1-2.7 55.2.2 55.2.3 3.2 9.5zm3.4 78.5V275H194v-89h124v44.5zm1 59c0 .3-2.3 7.6-5.1 16.3-7.2 22.1-9.8 35.1-10.6 51.3-.7 16 .2 24 6.3 57.5 5.4 29.7 6.2 36.7 5.3 47.5-1 11.8-2.6 18-5.9 23.3-5.9 9.2-14.3 11.1-25.8 5.6-8.5-4-11-3.9-15.3.6-1.8 2-5.3 4.5-7.6 5.6-4.2 1.9-4.4 1.9-8.5 0-2.4-1.1-5.9-3.6-7.7-5.6-4.3-4.5-6.8-4.6-15.3-.6-11.5 5.5-19.9 3.6-25.8-5.6-3.3-5.3-4.9-11.5-5.9-23.3-.9-10.8-.1-17.8 5.3-47.5 6.1-33.5 7-41.5 6.3-57.5-.8-16.2-3.4-29.2-10.6-51.3-2.8-8.7-5.1-16-5.1-16.3 0-.3 28.4-.5 63-.5 34.7 0 63 .2 63 .5z"/>
    </symbol>

    <symbol id="glass-filter-icon" viewBox="0 0 512 512">
        <path fill="none" d="M-1-1h582v402H-1z"/><g><path d="m311.715 157.677-15.196-15.196c-6.138-6.139-9.519-14.3-9.519-22.981V41.141c4.899-4.31 8-10.619 8-17.641C295 10.542 284.458 0 271.5 0h-32C226.542 0 216 10.542 216 23.5c0 7.023 3.101 13.332 8 17.641V119.5c0 8.681-3.381 16.842-9.519 22.981l-15.196 15.196C184.27 172.692 176 192.656 176 213.892V487.5c0 12.958 10.542 23.5 23.5 23.5h112c12.958 0 23.5-10.542 23.5-23.5V213.892c0-21.236-8.27-41.2-23.285-56.215zM239.5 15h32c4.687 0 8.5 3.813 8.5 8.5s-3.813 8.5-8.5 8.5h-32c-4.687 0-8.5-3.813-8.5-8.5s3.813-8.5 8.5-8.5zM191 327h16.5a7.5 7.5 0 0 0 0-15H191v-17h32.5a7.5 7.5 0 0 0 0-15H191v-25h48.5c4.687 0 8.5 3.813 8.5 8.5v128c0 4.687-3.813 8.5-8.5 8.5H191v-73zm129 160.5c0 4.687-3.813 8.5-8.5 8.5h-112c-4.687 0-8.5-3.813-8.5-8.5V415h48.5c12.958 0 23.5-10.542 23.5-23.5v-128c0-12.958-10.542-23.5-23.5-23.5H191v-26.108c0-17.229 6.709-33.426 18.892-45.608l15.196-15.196c8.972-8.972 13.913-20.9 13.913-33.587V46.987c.167.004.332.013.5.013h32c.168 0 .333-.009.5-.013V119.5c0 12.688 4.941 24.616 13.913 33.587l15.196 15.196c12.181 12.183 18.89 28.38 18.89 45.609V487.5z"/><path d="M295.5 206.392a7.5 7.5 0 0 0-7.5 7.5V287.5a7.5 7.5 0 0 0 15 0v-73.608a7.5 7.5 0 0 0-7.5-7.5zM278.481 190.911a7.474 7.474 0 0 0 5.303 2.197 7.474 7.474 0 0 0 5.303-2.197 7.5 7.5 0 0 0 0-10.606l-15.196-15.196a7.5 7.5 0 0 0-10.606 0 7.5 7.5 0 0 0 0 10.606l15.196 15.196z"/></g>
    </symbol>

    <symbol id="metal-filter-icon" viewBox="0 0 512 512">
        <path d="M220.2 35.6c-56.7 6.1-101.3 26.9-111.8 51.9-4 9.6-3.4 21.1 1.7 30.4l2.9 5.5v59.2l-2.9 5.5c-5.7 10.4-5.7 22.4-.1 33.3l3 5.9v58.3l-2.9 5.5c-5.7 10.4-5.7 22.4-.1 33.3l3 5.9v29.4c0 27.3-.1 29.7-1.9 32.1-3.1 4.4-5.3 12.3-5.3 19.2 0 37.8 65.4 67 150.2 67 76.3 0 138.3-23.9 149-57.4 2.6-8.2.7-22-4.1-28.8-1.8-2.4-1.9-4.8-1.9-32.1v-29.4l3-5.9c5.6-10.9 5.6-22.9-.1-33.3l-2.9-5.5v-58.3l3-5.9c5.6-10.9 5.6-22.9-.1-33.3l-2.9-5.5v-58.9l3-6.1c9.2-18.7 3.3-36.5-17.4-51.8-20.3-15.1-54.7-26.2-93.8-30.3-18-1.8-53.3-1.8-70.6.1zm78.3 16.8c46.4 7.1 78.6 21.3 89.2 39.3 11.5 19.6-15.6 42.2-64.7 53.7-47.6 11.3-108.3 9.2-152.5-5-12.2-4-29.2-12.7-36.5-18.7-11.8-9.7-15.2-20.5-9.7-30C135.7 72.3 175.9 56 225 51c13.1-1.3 61.7-.4 73.5 1.4zm-152.1 95.2c17.8 8.7 42.6 15.3 71.1 19 18.3 2.4 58.1 2.4 77 0 34.4-4.3 64.9-13.7 84.4-26l4.1-2.6v50.1l3 4.4c5.1 7.4 5.6 14.5 1.7 22.1-.9 1.7-4.5 5.8-8 9.1-11.1 10.4-33.3 20.2-57.8 25.7-24.3 5.4-32.1 6.1-65.9 6.1-33.8 0-41.6-.7-65.9-6.1-37-8.3-64.5-24.8-68.2-41.1-1-4.6.7-11.1 4.1-16l3-4.1V138l4.1 2.6c2.3 1.4 8.3 4.6 13.3 7zM140 248.2c17.2 9.5 40.4 16.5 68.6 20.8 19.6 3.1 60.7 3.8 82.2 1.6 33.9-3.6 64.2-12.3 84.3-24l7.4-4.4.3 24.5.2 24.5 3 4.2c5.1 7.1 5.6 14.6 1.7 22.2-2.9 5.6-14 14.7-24.5 20.2-16.6 8.7-37.8 14.8-64.7 18.9-17.3 2.6-68 2.6-84.5 0-27.8-4.3-45.7-9.4-62.6-17.7-12.8-6.3-23.8-15-27.1-21.4-3.9-7.6-3.4-15.1 1.7-22.3l3-4.1v-49.4l2.3 1.4c1.2.8 5.1 3.1 8.7 5zm-4.3 100.5c11.6 7.4 33.2 15.4 53.8 19.8 24.1 5.2 32.8 6 67 5.9 28.1 0 33.8-.3 46.5-2.2 30.7-4.8 56-13 74.8-24.2l5.2-3.2v49.4l3 4.1c7.5 10.6 5.4 20.7-6.4 31.4-13.7 12.4-37.3 21.9-69.1 27.8-20.2 3.7-37.1 4.8-63.5 4.2-24.3-.6-35.8-1.9-55.6-6.3-38.4-8.5-65.7-24.7-69.4-41.1-1.1-4.6.9-12.2 4.3-16.7l2.7-3.5v-24.5c0-13.5.2-24.6.5-24.6.2 0 3 1.7 6.2 3.7z"/><path d="M172 88.9c-7.9 2.4-13 7.3-13 12.6 0 9.2 16.7 15.7 31 12.1 7.5-2 11.8-4.8 13.6-9.2 3.7-8.8-7-16.5-22.5-16.3-3.6 0-7.7.4-9.1.8z"/>
    </symbol>

    <symbol id="technic-filter-icon" viewBox="0 0 64 64" xml:space="preserve" style="fill-rule:evenodd;clip-rule:evenodd;stroke-linejoin:round;stroke-miterlimit:2">
        <path d="M7.148 6v52a3 3 0 0 0 3 3h43.704a3 3 0 0 0 3-3V6a3 3 0 0 0-3-3H10.148a3 3 0 0 0-3 3zm47.704 50v2a1 1 0 0 1-1 1H10.148a1 1 0 0 1-1-1v-2h45.704zM9.148 20v34h45.704V20H9.148zM46.46 41H49a1 1 0 0 0 1-1v-6a1 1 0 0 0-1-1h-2.54C44.707 26.661 38.894 22 32 22c-8.279 0-15 6.721-15 15s6.721 15 15 15c6.894 0 12.707-4.661 14.46-11zm-2.088-8C42.684 27.78 37.78 24 32 24c-7.175 0-13 5.825-13 13s5.825 13 13 13c5.78 0 10.684-3.78 12.372-9h-3.139c-1.548 3.565-5.101 6.061-9.233 6.061-5.553 0-10.061-4.508-10.061-10.061S26.447 26.939 32 26.939c4.132 0 7.685 2.496 9.233 6.061h3.139zm-5.33.076A8.063 8.063 0 0 0 32 28.939 8.065 8.065 0 0 0 23.939 37 8.065 8.065 0 0 0 32 45.061a8.063 8.063 0 0 0 7.042-4.137A4.004 4.004 0 0 1 35.822 37a4.004 4.004 0 0 1 3.22-3.924zM48 35h-8.178c-1.103 0-2 .896-2 2s.897 2 2 2H48v-4zm6.852-17H9.148V6a1 1 0 0 1 1-1h43.704a1 1 0 0 1 1 1v12zM28 8a1 1 0 0 0-1-1H12a1 1 0 0 0-1 1v7a1 1 0 0 0 1 1h15a1 1 0 0 0 1-1V8zm21.5.5A3.501 3.501 0 0 0 46 12c0 1.932 1.568 3.5 3.5 3.5S53 13.932 53 12s-1.568-3.5-3.5-3.5zm-9 0A3.501 3.501 0 0 0 37 12c0 1.932 1.568 3.5 3.5 3.5S44 13.932 44 12s-1.568-3.5-3.5-3.5zM26 9v5H13V9h13zm23.5 1.5a1.5 1.5 0 1 1-.001 3.001A1.5 1.5 0 0 1 49.5 10.5zm-9 0a1.5 1.5 0 1 1-.001 3.001A1.5 1.5 0 0 1 40.5 10.5z"/>
    </symbol>

    <symbol id="clothes-filter-icon" viewBox="0 0 512 512">
        <path d="M185 59.7c-26.7 7.9-47 14.7-56.3 18.9-13.2 5.8-25.8 14.3-30.8 20.7-9.2 11.6-19.9 39.3-28.8 74.4-8.4 33.5-13.8 64.6-12.7 74.5 1.5 15 22.6 66.9 46.7 115 7.3 14.6 8.7 16.1 15.3 16.2l3.9.1 3.9 9c4.8 10.9 7.4 13.9 12.3 13.9h3.5v9.2c0 8.5.2 9.5 2.6 12.3 1.4 1.7 3.4 3.1 4.4 3.1 1.6 0 1.9 1.2 2.2 11.6l.3 11.6 3.4 3c3.8 3.4 2.4 3.4 22.1 0 52-9.1 110.9-8.7 163.8 1 17.8 3.2 20.2 1.2 20.2-16.7 0-9.6.2-10.5 1.9-10.5 1 0 3-1.2 4.5-2.6 2.5-2.5 2.6-3.2 2.6-12.6 0-9.4.1-9.9 1.9-9.3 1.1.3 3.5 0 5.3-.8 3-1.3 4-2.8 8.1-11.8l4.6-10.4 3.9-.1c2.2-.1 4.9-.7 6.1-1.3 5.1-2.8 39.5-77.6 50.2-109.1 6-17.8 6.6-23 4.4-38.5-7.1-51.5-26.1-113.2-40.4-131.2-7.5-9.5-24.8-19.3-49.4-27.9-11.5-4-50-15.4-52.1-15.4-.8 0-6.6 2.7-13 6-6.5 3.3-16.1 7.4-21.4 9.2-8.8 2.9-10.8 3.2-22.2 3.2-11.4 0-13.4-.3-22-3.2-5.2-1.7-14.9-5.9-21.4-9.2-6.5-3.3-12.8-5.9-14-5.9-1.2.1-7.3 1.7-13.6 3.6zm6 21.5c0 3.9 6.1 20.4 10.2 27.3 6.1 10.4 18.6 22.4 28.2 27 22.9 11 49 7.1 67.6-10.2 11.2-10.4 19.5-24.7 23-39.8.7-2.8 1.3-5.5 1.5-6.2.3-.8 5.2.3 15.7 3.4 27.1 8 45.6 15.5 55.4 22.5l4.1 2.9-12.9 39.7C348.5 256.3 323 338.1 323 342.7c0 2.6.8 4.2 2.9 6.2l2.9 2.7-4.5 10.4c-6.5 15.4-5.8 16.7 13.7 25.5l13 5.8v6.4c0 7.4.9 7-13.8 4.8-25.9-3.8-44.4-4.9-81.2-4.9-36.8 0-55.3 1.1-81.2 4.9-14.7 2.2-13.8 2.6-13.8-4.8v-6.3l13-5.9c19.6-8.8 20.4-10.2 13.7-25.6l-4.5-10.3 2.9-2.7c2.1-2 2.9-3.6 2.9-6.1 0-4.7-25.9-87.6-61.4-196.9L115.3 108l5.1-3.4c6.9-4.5 14.2-8.1 24.8-12.2 11-4.3 44-14.3 45.1-13.7.4.2.7 1.3.7 2.5zm27.6 4.7c13.3 5.6 22.5 7.5 37.4 7.5 14.8 0 23-1.6 37.1-7.4 4-1.6 7.5-2.8 7.6-2.6.7.7-4.7 12.9-7.7 17.6-19.9 31-61 27.7-77.4-6.2-3.5-7.4-5.1-11.8-4.3-11.8.3 0 3.6 1.3 7.3 2.9zm-101.7 88.7c14.3 44.1 34.2 106.6 45.1 141.8 4.8 15.6 5.9 20.1 4.8 20.7-5.3 3.3-45 20.1-45.7 19.3-1.1-1.1-15.3-31.3-23.3-49.4-9.1-20.3-17.5-42-20.5-52.2-2.5-8.8-2.6-9.5-1.4-18.7 1.7-13.1 7.4-41.4 12.1-59.6 5.2-20.5 13.6-46.3 14.6-45.2.2.2 6.7 19.7 14.3 43.3zM416 148.8c8 24.5 16.4 61.1 20.1 87.1 1.4 10.1.7 14-5.8 32.1-6.8 18.7-36.4 85.2-39.4 88.4-.7.8-40.5-16.1-45.8-19.4-.9-.5 1-8.1 7.4-28.6 11.9-38.2 27.4-87 41.1-129.4 6.3-19.5 12.4-38.4 13.6-41.9 1.4-4.5 2.3-5.9 2.9-5 .5.8 3.2 8.3 5.9 16.7zM167.6 363.5c.9 2.5 1.4 4.8 1.1 5.1-.7.8-23.8 11.4-24.7 11.4-.8 0-4-6.6-4-8.4 0-1 22.3-12.1 25.2-12.5.3-.1 1.4 1.9 2.4 4.4zm192.7 1.5c6.5 2.9 11.7 5.8 11.7 6.6 0 1.8-3.2 8.4-4 8.4-.9 0-24-10.6-24.7-11.4-1-1 2.8-9.8 4.1-9.3.6.3 6.4 2.8 12.9 5.7zm-50.8 55.5c8.8.8 19.6 2.1 24 2.8l8 1.2.3 5.2c.2 2.9.1 5.3-.1 5.3s-2.7-.4-5.4-1c-29.3-5.5-84.9-7.9-118.8-5.1-12.7 1.1-40.7 4.7-45.3 5.8-2.2.5-2.3.3-2-4.8l.3-5.4 4.5-.7c8-1.4 31.2-3.8 44.5-4.8 18.8-1.3 71.1-.4 90 1.5z"/> 
    </symbol>
    <!-- /Custom filter checkboxes icons -->
</svg>
