<?xml version="1.0"?>
<svg width="910.90802" height="704.99598" xmlns="http://www.w3.org/2000/svg" xmlns:svg="http://www.w3.org/2000/svg" data-name="Layer 1">
 <g class="layer">
  <title>Layer 1</title>
  <ellipse cx="697.32" cy="542.77" fill="#3f3d56" id="svg_1" rx="48.5" ry="98.97"/>
  <path d="m837.38,802.26c19.43,-116.55 0.2,-232.68 0,-233.84l-3.78,0.64c0.2,1.16 19.32,116.68 0,232.57l3.78,0.63z" fill="#cacaca" id="svg_2" transform="translate(-144.54599 -97.50201)"/>
  <rect fill="#cacaca" height="49.74" id="svg_3" transform="translate(-268.85332 959.85926) rotate(-61.8584)" width="3.83" x="818.27" y="607.54"/>
  <rect fill="#cacaca" height="3.83" id="svg_4" transform="translate(-345.98446 387.63054) rotate(-28.15796)" width="49.74" x="841.61" y="642.25"/>
  <ellipse cx="813.85" cy="386.14" fill="#e6e6e6" id="svg_5" rx="94.87" ry="193.56"/>
  <path d="m947.83,800.18c37.95,-227.66 0.39,-454.49 0,-456.76l-3.78,0.64c0.39,2.26 37.84,228.48 0,455.49l3.78,0.63z" fill="#cacaca" id="svg_6" transform="translate(-144.54599 -97.50201)"/>
  <rect fill="#cacaca" height="97.29" id="svg_7" transform="translate(-73.4911 957.62642) rotate(-61.8584)" width="3.83" x="914.09" y="419.63"/>
  <rect fill="#cacaca" height="3.83" id="svg_8" transform="translate(-257.25314 435.62254) rotate(-28.15742)" width="97.29" x="957.9" y="489.35"/>
  <path d="m738.08,800.79l-504.6,0a7.01,7.01 0 0 1 -7,-7l0,-318.85a7.01,7.01 0 0 1 7,-7l504.6,0a7.01,7.01 0 0 1 7,7l0,318.85a7.01,7.01 0 0 1 -7,7z" fill="#e4e4e4" id="svg_9" transform="translate(-144.54599 -97.50201)"/>
  <path d="m279.88,506.58a3,3 0 0 0 -3,3l0,249.57a3,3 0 0 0 3,3l411.79,0a3,3 0 0 0 3,-3l0,-249.57a3,3 0 0 0 -3,-3l-411.79,0z" fill="#fff" id="svg_10" transform="translate(-144.54599 -97.50201)"/>
  <path d="m695.67,570.86l0,-15.82l-58.23,0l0,-49.46l-15.82,0l0,49.46l-103.67,0l0,-49.46l-15.82,0l0,49.46l-159.9,0l0,-49.46l-15.82,0l0,49.46l-55.29,0l0,15.82l55.29,0l0,61.5l-55.29,0l0,15.82l55.29,0l0,65.89l-55.29,0l0,15.82l140.52,0l0,33.26l15.81,0l0,-33.26l74.68,0l0,33.26l15.82,0l0,-33.26l177.72,0l0,-15.82l-177.72,0l0,-65.89l177.72,0l0,-15.82l-58.23,0l0,-61.5l58.23,0zm-193.54,0l0,19.33l-159.9,0l0,-19.33l159.9,0zm-159.9,35.14l159.9,0l0,26.36l-159.9,0l0,-26.36zm0,108.07l0,-65.89l69.41,0l0,65.89l-69.41,0zm159.9,0l-74.68,0l0,-65.89l74.68,0l0,65.89zm119.49,-81.71l-103.67,0l0,-61.5l103.67,0l0,61.5z" fill="#e6e6e6" id="svg_11" transform="translate(-144.54599 -97.50201)"/>
  <circle cx="365.49" cy="544.77" fill="#32cd32" id="svg_12" r="20.21"/>
  <circle cx="367.92" cy="300.07" fill="#32cd32" id="svg_14" r="124.66"/>
  <polygon fill="#32cd32" id="svg_15" points="369.135 502.707 329.753 435.433 290.371 368.159 368.323 367.69 446.275 367.221 407.705 434.964 369.135 502.707"/>
  <circle cx="368.92" cy="299.28" fill="#fff" id="svg_16" r="44.72"/>
  <path d="m509.58,98.14s-26.67,-7.51 -34.56,28.93s-2.88,31.85 -2.88,31.85l59.54,-6.95s17.91,-42.74 -22.1,-53.83z" fill="#2f2e41" id="svg_17" transform="translate(-144.54599 -97.50201)"/>
  <path d="m470.79,258.01s-40.24,1.86 -33.28,17.66q0.74,1.68 1.38,3.14a282.52,282.52 0 0 0 17.16,33.22l24.74,40.98l9,-5l-25.33,-65.83l22.77,-1.86l-16.44,-22.31z" fill="#ffb6b6" id="svg_18" transform="translate(-144.54599 -97.50201)"/>
  <path d="m576.89,274.74l13.01,28.34s9.76,9.76 20.44,48.78s13.01,37.63 13.01,37.63l-10.56,3.52l-43.33,-78.78l-21.37,-26.94l6.5,-14.41l22.3,1.86z" fill="#ffb6b6" id="svg_19" transform="translate(-144.54599 -97.50201)"/>
  <path d="m561.09,242.22l18.7,34.79s42.38,83.28 38,83c-4.93,-0.31 -18.76,5.43 -23,11c-2.05,2.69 -32,-63 -42.52,-77.68l-22.77,-17.66s-64.63,10.88 -64.71,7.34c-0.04,-1.73 21.4,39.84 17,38c-5.01,-2.1 -16.81,8.12 -22,6c-2.15,-0.87 -17.3,-37.61 -23.43,-52.66a8.15,8.15 0 0 1 3.77,-10.31c4.61,-2.4 68.66,-17.03 68.66,-17.03l-1.12,-5.72l4.64,-9.29l48.78,10.22z" fill="#2f2e41" id="svg_20" transform="translate(-144.54599 -97.50201)"/>
  <circle cx="504.88" cy="136.76" fill="#ffb6b6" id="svg_21" r="18.12" transform="translate(144.46959 515.71005) rotate(-80.78268)"/>
  <path d="m562.79,245.01c1,3 -5.48,4.73 -14.51,3.04c-7.82,-1.46 -16.37,-3.19 -23.12,-4.59c-7.22,-1.51 -12.38,-2.63 -12.38,-2.63s-1.86,11.61 -7.9,10.22c-5.2,-1.2 -20.75,-55.52 -24.96,-70.53a5.22,5.22 0 0 1 2.31,-5.86l21.36,-13.05s14.72,-5.05 20.08,-5.19s14.66,-1.54 14.66,-1.54s10.69,0.93 12.54,8.83s9.62,54.72 9.76,65.97c0.16,12.33 -0.84,6.33 2.16,15.33z" fill="#cacaca" id="svg_22" transform="translate(-144.54599 -97.50201)"/>
  <path d="m511.65,113.48s-7.51,19.92 -25.92,28.18l-3,-17.66l28.92,-10.52z" fill="#2f2e41" id="svg_23" transform="translate(-144.54599 -97.50201)"/>
  <ellipse cx="377.99" cy="32.29" fill="#ffb6b6" id="svg_24" rx="2.56" ry="4.88"/>
  <path d="m497.28,357.66l-35.92,16.51l-0.21,-0.45a15.39,15.39 0 0 1 7.55,-20.41l0,0l21.94,-10.09l6.64,14.44z" fill="#2f2e41" id="svg_25" transform="translate(-144.54599 -97.50201)"/>
  <path d="m607.43,390.65l22.03,-9.88l0.01,0a15.39,15.39 0 0 1 20.33,7.75l0.2,0.45l-36.07,16.17l-6.5,-14.49z" fill="#2f2e41" id="svg_26" transform="translate(-144.54599 -97.50201)"/>
  <polygon id="svg_27" opacity="0.2" points="403.241 104.51 399.035 150.771 406.512 151.124 403.241 104.51"/>
  <path d="m518.47,288.43a9.14,9.14 0 0 0 -2,-13.86l-16.16,-81.63l-18.56,7.1l21.72,78.01a9.19,9.19 0 0 0 15,10.38z" fill="#ffb6b6" id="svg_28" transform="translate(-144.54599 -97.50201)"/>
  <path d="m504.4,206.7l-20.38,3.59a4.1,4.1 0 0 1 -4.8,-3.92l-0.56,-20.62a11.38,11.38 0 0 1 22.41,-3.88l6.5,19.5a4.1,4.1 0 0 1 -3.17,5.33z" fill="#cacaca" id="svg_29" transform="translate(-144.54599 -97.50201)"/>
  <path d="m534.09,287a9.14,9.14 0 0 0 2.55,-13.78l10.87,-82.49l-19.85,0.77l-4.44,80.85a9.19,9.19 0 0 0 10.87,14.65z" fill="#ffb6b6" id="svg_30" transform="translate(-144.54599 -97.50201)"/>
  <path d="m546.97,205.07l-20.45,-3.14a4.1,4.1 0 0 1 -3.29,-5.25l6.08,-19.71a11.38,11.38 0 0 1 22.48,3.51l-0.1,20.56a4.1,4.1 0 0 1 -4.72,4.03z" fill="#cacaca" id="svg_31" transform="translate(-144.54599 -97.50201)"/>
 </g>
</svg>