<svg version="1.0" xmlns="http://www.w3.org/2000/svg" width="682.667" height="682.667" viewBox="0 0 512 512">
<path d="M243.8 36.4c-57.9 20.1-82.8 29.2-85.6 31.2-10.8 7.9-16 20.4-14.1 33.9.9 6.9 3.8 13 8.9 18.8l3.9 4.4-3.5 3.4c-4.8 4.6-8.3 11.6-9.2 18.6-1.5 11.6 1.3 21 8.8 29.6l3.9 4.4-3.5 3.4c-12.7 12.2-12.8 34.9-.3 48.2l3.9 4-3.6 3.6c-12.5 12.5-12.9 33.8-.9 47.9 3.9 4.5 13.2 9.6 19.5 10.7l4 .7V320h-6c-4.8 0-6.4.4-8.1 2.1-2 2-2.1 2.8-1.7 24.7.4 21.6.6 23.1 3.2 31.2 5 15.1 11.7 26.3 22.2 36.8l6.3 6.3.3 17.8.3 17.9 3 4.4c1.7 2.4 5.2 5.6 7.7 7.3l4.7 3v7.3c.1 8.4 1.8 13.2 6.4 18.1 6.5 6.9 7.7 7.1 41.7 7.1s35.2-.2 41.7-7.1c4.6-4.9 6.3-9.7 6.4-18.1v-7.3l4.7-3c2.5-1.7 6-4.9 7.7-7.3l3-4.4.3-17.9.3-17.8 6.3-6.3c10.5-10.5 17.2-21.7 22.2-36.8 2.6-8.1 2.8-9.6 3.2-31.2.4-21.9.3-22.7-1.7-24.7-1.7-1.7-3.3-2.1-8.1-2.1h-6l.2-36.6.3-36.7 8-3c10.2-3.9 18.1-11.2 21.3-20 4.7-12.4 2.2-27.1-6.2-36.4l-4.4-4.8 4.4-4.8c11.4-12.6 11.4-33.7 0-46.4l-4.4-4.8 4.4-4.8c5.7-6.4 8.4-13.7 8.4-23.2s-2.7-16.8-8.4-23.2l-4.4-4.8 4.4-4.8c5.7-6.4 8.4-13.7 8.4-23.2 0-10.5-2.8-17.4-9.9-24.6-7.3-7.2-14-9.9-24.9-9.9-7.5.1-10.3 1-89.4 28.4zm97.1-10c4.2 2.2 8.9 8.1 9.7 12.1 1.4 7.6-1.9 15.5-7.9 19-4.6 2.8-160.8 56.5-164.1 56.5-4.7-.1-11-3.4-14.2-7.5-5.6-7.3-3.8-19.2 3.6-24.7 1.4-1 38.1-14.1 81.5-29.2 82.4-28.6 85.1-29.4 91.4-26.2zm0 56c4.2 2.2 8.9 8.1 9.7 12.1 1.4 7.6-1.9 15.5-7.9 19-4.6 2.8-160.8 56.5-164.1 56.5-4.7-.1-11-3.4-14.2-7.5-5.6-7.3-3.8-19.2 3.6-24.7 1.4-1 38.1-14.1 81.5-29.2 82.4-28.6 85.1-29.4 91.4-26.2zm0 56c4.2 2.2 8.9 8.1 9.7 12.1 1.4 7.6-1.9 15.5-7.9 19-4.7 2.8-160.8 56.5-164.2 56.5-4.6-.1-10.9-3.4-14.1-7.5-5.6-7.3-3.8-19.2 3.6-24.7 1.4-1 38.1-14.1 81.5-29.2 82.4-28.6 85.1-29.4 91.4-26.2zm0 56c4.2 2.2 8.9 8.1 9.7 12.1 1.4 7.6-1.9 15.5-7.9 19-4.7 2.8-160.8 56.5-164.2 56.5-4.6-.1-10.9-3.4-14.1-7.5-5.6-7.3-3.8-19.2 3.6-24.7 1.4-1 38.1-14.2 81.5-29.2 82.3-28.6 85.1-29.4 91.4-26.2zM320 286v34h-32v-56.8l15.8-5.5c8.6-3 15.8-5.5 16-5.6.1 0 .2 15.2.2 33.9zm-48 8.5V320h-32l.2-20.1.3-20.1 15-5.3c8.3-2.9 15.3-5.4 15.8-5.4.4-.1.7 11.4.7 25.4zm-48 8.5v17h-32v-23.5l14.8-5.2c8.1-2.8 15.3-5.2 16-5.2.9-.1 1.2 3.9 1.2 16.9zm111.6 46c-1.2 22.9-6.9 37.7-19.8 51.5l-7 7.5H203.2l-7-7.5c-12.9-13.8-18.6-28.6-19.8-51.5l-.7-13h160.6l-.7 13zM304 435.4c0 13.7-1.1 17.3-5.6 19.2-4.4 1.8-79.2 2.1-84.4.3-4.8-1.7-6-5.6-6-19.4V424h96v11.4zm-16 40.1c0 5.7-2.3 10.1-6 11.4-4.5 1.5-47.5 1.5-52 0-3.7-1.3-6-5.7-6-11.4V472h64v3.5z"/>
</svg>