<svg version="1.0" xmlns="http://www.w3.org/2000/svg" width="682.667" height="682.667" viewBox="0 0 512 512">
<path d="M230.2 2.1c-2.9 1.5-5.1 3.6-7 6.8-2.7 4.5-2.7 4.9-2.7 21.9 0 15.9.2 17.5 1.9 18.7 1.7 1.3 1.8 2.3 1.2 9.4-1.2 14.8-3.7 21.7-14.6 40.6-12.6 22.1-21.1 38.9-24.3 48.5-5 15.3-5.2 18.1-5.2 83v60.5l5.3 16c9.9 29.8 12.8 50.2 10.3 71.2-.7 5.4-3.5 22.2-6.3 37.3-4.3 24.1-5 29.1-4.9 40.5.1 38.3 18.4 57.4 46.2 48.4l6.6-2.2 4.5 3.6c9.4 7.1 19.7 7 30-.2l5.3-3.6 5.5 2.2c6.9 2.8 17.5 3 23.8.4 2.4-.9 6.3-3.6 8.6-5.9 9.5-9.3 13.7-22.4 13.7-42.7.1-11.4-.6-16.4-4.9-40.5-2.8-15.1-5.6-31.9-6.3-37.3-2.5-21 .4-41.4 10.3-71.2l5.3-16V231c0-64.9-.2-67.7-5.2-83-3.2-9.6-11.7-26.4-24.3-48.5-10.9-18.9-13.2-25.3-14.5-40.4-.7-7.3-.6-8.3 1.1-9.6 1.7-1.2 1.9-2.9 1.9-18.7 0-17.1 0-17.4-2.7-22-1.9-3.2-4.1-5.2-7.1-6.7-4-1.9-6-2.1-25.8-2.1s-21.7.2-25.7 2.1zm47.2 13.1c1.2 1.7 1.6 4.8 1.6 12.5V38h-46V27.7c0-15.5-1.2-14.7 23-14.7 19.4 0 19.9.1 21.4 2.2zM274.8 55c.6 8.2 3.3 23.4 5.1 28.4 1 3 6.9 14.2 13 25 6.1 10.7 11.1 19.7 11.1 20 0 .3-21.6.6-48 .6s-48-.3-48-.6 5-9.3 11.1-20c6.1-10.8 12-22 13-24.9 2-5.8 4.9-21.9 4.9-27.6 0-2 .3-3.9.7-4.3.4-.3 8.8-.5 18.7-.4l18.1.3.3 3.5zm39.8 97c1.8 5.2 3.5 11.9 3.9 14.7l.7 5.3H192.8l.7-5.3c.6-4.6 3.3-14 6.4-22l1.1-2.7 55.2.2 55.2.3 3.2 9.5zm3.4 78.5V275H194v-89h124v44.5zm1 59c0 .3-2.3 7.6-5.1 16.3-7.2 22.1-9.8 35.1-10.6 51.3-.7 16 .2 24 6.3 57.5 5.4 29.7 6.2 36.7 5.3 47.5-1 11.8-2.6 18-5.9 23.3-5.9 9.2-14.3 11.1-25.8 5.6-8.5-4-11-3.9-15.3.6-1.8 2-5.3 4.5-7.6 5.6-4.2 1.9-4.4 1.9-8.5 0-2.4-1.1-5.9-3.6-7.7-5.6-4.3-4.5-6.8-4.6-15.3-.6-11.5 5.5-19.9 3.6-25.8-5.6-3.3-5.3-4.9-11.5-5.9-23.3-.9-10.8-.1-17.8 5.3-47.5 6.1-33.5 7-41.5 6.3-57.5-.8-16.2-3.4-29.2-10.6-51.3-2.8-8.7-5.1-16-5.1-16.3 0-.3 28.4-.5 63-.5 34.7 0 63 .2 63 .5z"/>
</svg>